<svg width="20" height="20" viewBox="0 0 20 20" fill="none" xmlns="http://www.w3.org/2000/svg">
<path d="M8.54101 4.5835H5.66602C4.26588 4.5835 3.56582 4.5835 3.03104 4.85599C2.56063 5.09567 2.17818 5.47812 1.9385 5.94853C1.66601 6.48331 1.66601 7.18337 1.66602 8.58351L1.66602 9.5835C1.66602 10.3601 1.66602 10.7484 1.79289 11.0546C1.96204 11.463 2.2865 11.7875 2.69488 11.9566C3.00116 12.0835 3.38945 12.0835 4.16602 12.0835V15.6252C4.16602 15.8186 4.16602 15.9154 4.17404 15.9969C4.25198 16.7882 4.87803 17.4142 5.66932 17.4921C5.75081 17.5002 5.84754 17.5002 6.04102 17.5002C6.23449 17.5002 6.33123 17.5002 6.41271 17.4921C7.20401 17.4142 7.83006 16.7882 7.90799 15.9969C7.91602 15.9154 7.91602 15.8186 7.91602 15.6252V12.0835H8.54102C10.013 12.0835 11.8137 12.8726 13.2029 13.6299C14.0134 14.0717 14.4186 14.2926 14.684 14.2601C14.9301 14.2299 15.1162 14.1194 15.2604 13.9178C15.416 13.7003 15.416 13.2652 15.416 12.3949V4.27207C15.416 3.40183 15.416 2.96671 15.2604 2.74924C15.1162 2.54759 14.9301 2.43709 14.684 2.40694C14.4186 2.37444 14.0134 2.59534 13.2029 3.03713C11.8137 3.79443 10.013 4.5835 8.54101 4.5835Z" fill="white"/>
<path d="M18.3327 6.66684V10.0002M8.54101 4.5835H5.66602C4.26588 4.5835 3.56582 4.5835 3.03104 4.85599C2.56063 5.09567 2.17818 5.47812 1.9385 5.94853C1.66601 6.48331 1.66601 7.18337 1.66602 8.58351L1.66602 9.5835C1.66602 10.3601 1.66602 10.7484 1.79289 11.0546C1.96204 11.463 2.2865 11.7875 2.69488 11.9566C3.00116 12.0835 3.38945 12.0835 4.16602 12.0835V15.6252C4.16602 15.8186 4.16602 15.9154 4.17404 15.9969C4.25198 16.7882 4.87803 17.4142 5.66932 17.4921C5.75081 17.5002 5.84754 17.5002 6.04102 17.5002C6.23449 17.5002 6.33123 17.5002 6.41271 17.4921C7.20401 17.4142 7.83006 16.7882 7.90799 15.9969C7.91602 15.9154 7.91602 15.8186 7.91602 15.6252V12.0835H8.54102C10.013 12.0835 11.8137 12.8726 13.2029 13.6299C14.0134 14.0717 14.4186 14.2926 14.684 14.2601C14.9301 14.2299 15.1162 14.1194 15.2604 13.9178C15.416 13.7003 15.416 13.2652 15.416 12.3949V4.27207C15.416 3.40183 15.416 2.96671 15.2604 2.74924C15.1162 2.54759 14.9301 2.43709 14.684 2.40694C14.4186 2.37444 14.0134 2.59534 13.2029 3.03713C11.8137 3.79443 10.013 4.5835 8.54101 4.5835Z" stroke="white" stroke-width="1.4" stroke-linecap="round" stroke-linejoin="round"/>
</svg>