<svg width="20" height="20" viewBox="0 0 20 20" fill="none" xmlns="http://www.w3.org/2000/svg">
<path d="M18.3332 6.66684V10.0002M8.5415 4.5835H5.6665C4.26637 4.5835 3.56631 4.5835 3.03153 4.85599C2.56112 5.09567 2.17867 5.47812 1.93899 5.94853C1.6665 6.48331 1.6665 7.18337 1.6665 8.58351L1.6665 9.5835C1.66651 10.3601 1.66651 10.7484 1.79337 11.0546C1.96253 11.463 2.28699 11.7875 2.69536 11.9566C3.00165 12.0835 3.38994 12.0835 4.16651 12.0835V15.6252C4.16651 15.8186 4.16651 15.9154 4.17453 15.9969C4.25247 16.7882 4.87852 17.4142 5.66981 17.4921C5.75129 17.5002 5.84803 17.5002 6.04151 17.5002C6.23498 17.5002 6.33172 17.5002 6.4132 17.4921C7.2045 17.4142 7.83054 16.7882 7.90848 15.9969C7.91651 15.9154 7.91651 15.8186 7.91651 15.6252V12.0835H8.54151C10.0135 12.0835 11.8142 12.8726 13.2034 13.6299C14.0139 14.0717 14.4191 14.2926 14.6845 14.2601C14.9306 14.2299 15.1167 14.1194 15.2609 13.9178C15.4165 13.7003 15.4165 13.2652 15.4165 12.3949V4.27207C15.4165 3.40183 15.4165 2.96671 15.2609 2.74924C15.1167 2.54759 14.9306 2.43709 14.6845 2.40694C14.4191 2.37444 14.0139 2.59534 13.2034 3.03713C11.8142 3.79443 10.0135 4.5835 8.5415 4.5835Z" stroke="#999999" stroke-width="1.4" stroke-linecap="round" stroke-linejoin="round"/>
</svg>