<svg width="20" height="20" viewBox="0 0 20 20" fill="none" xmlns="http://www.w3.org/2000/svg">
    <g clip-path="url(#clip0_1_15150)">
    <path d="M10.0003 4.99984V18.3332M10.0003 4.99984H7.0539C6.61976 4.99984 6.20341 4.82424 5.89643 4.51168C5.58945 4.19912 5.41699 3.7752 5.41699 3.33317C5.41699 2.89114 5.58945 2.46722 5.89643 2.15466C6.20341 1.8421 6.61976 1.6665 7.0539 1.6665C9.34556 1.6665 10.0003 4.99984 10.0003 4.99984ZM10.0003 4.99984H12.9468C13.3809 4.99984 13.7972 4.82424 14.1042 4.51168C14.4112 4.19912 14.5837 3.7752 14.5837 3.33317C14.5837 2.89114 14.4112 2.46722 14.1042 2.15466C13.7972 1.8421 13.3809 1.6665 12.9468 1.6665C10.6551 1.6665 10.0003 4.99984 10.0003 4.99984ZM16.667 9.1665V15.6665C16.667 16.5999 16.667 17.0666 16.4853 17.4232C16.3255 17.7368 16.0706 17.9917 15.757 18.1515C15.4005 18.3332 14.9337 18.3332 14.0003 18.3332L6.00033 18.3332C5.0669 18.3332 4.60019 18.3332 4.24367 18.1515C3.93007 17.9917 3.6751 17.7368 3.51531 17.4232C3.33366 17.0666 3.33366 16.5999 3.33366 15.6665V9.1665M1.66699 6.33317L1.66699 7.83317C1.66699 8.29988 1.66699 8.53324 1.75782 8.7115C1.83771 8.8683 1.9652 8.99578 2.122 9.07568C2.30026 9.1665 2.53362 9.1665 3.00033 9.1665L17.0003 9.1665C17.467 9.1665 17.7004 9.1665 17.8787 9.07568C18.0355 8.99578 18.1629 8.8683 18.2428 8.7115C18.3337 8.53324 18.3337 8.29988 18.3337 7.83317V6.33317C18.3337 5.86646 18.3337 5.63311 18.2428 5.45485C18.1629 5.29804 18.0355 5.17056 17.8787 5.09067C17.7004 4.99984 17.467 4.99984 17.0003 4.99984L3.00033 4.99984C2.53362 4.99984 2.30026 4.99984 2.122 5.09067C1.9652 5.17056 1.83771 5.29804 1.75782 5.45485C1.66699 5.63311 1.66699 5.86646 1.66699 6.33317Z" stroke="#999999" stroke-width="1.4" stroke-linecap="round" stroke-linejoin="round"/>
    </g>
    <defs>
    <clipPath id="clip0_1_15150">
    <rect width="20" height="20" fill="white"/>
    </clipPath>
    </defs>
</svg>