<svg width="20" height="20" viewBox="0 0 20 20" fill="none" xmlns="http://www.w3.org/2000/svg">
<g clip-path="url(#clip0_646_1752)">
<path d="M12.9549 8.27103C13.2666 7.71736 13.5264 7.21777 13.6866 6.83751C14.4648 4.99106 13.6953 2.86714 11.8144 2.00077C9.93355 1.1344 8.04483 2.03275 7.21592 3.76728C5.6308 2.67959 3.51631 2.83933 2.35023 4.5367C1.18415 6.23407 1.55012 8.45153 3.14723 9.66154C3.87208 10.2107 5.30563 11.02 6.65529 11.7402M13.5813 9.79146C13.2296 7.9015 11.6215 6.51928 9.59669 6.89496C7.57193 7.27065 6.26272 9.0974 6.53645 11.0823C6.75637 12.6771 7.97026 16.4188 8.439 17.8282C8.50296 18.0205 8.53494 18.1167 8.59826 18.1837C8.65343 18.2421 8.72677 18.2845 8.80494 18.303C8.89468 18.3243 8.99395 18.304 9.19249 18.2632C10.6474 17.9644 14.4948 17.1449 15.9858 16.5379C17.8417 15.7825 18.7994 13.7366 18.0821 11.794C17.3647 9.85139 15.3939 9.1511 13.5813 9.79146Z" stroke="#999999" stroke-width="1.4" stroke-linecap="round" stroke-linejoin="round"/>
</g>
<defs>
<clipPath id="clip0_646_1752">
<rect width="20" height="20" fill="white"/>
</clipPath>
</defs>
</svg>