<svg width="20" height="20" viewBox="0 0 20 20" fill="none" xmlns="http://www.w3.org/2000/svg">
    <g clip-path="url(#clip0_1_15724)">
    <path d="M14.4603 13.7501H7.32875C6.50361 13.7501 6.09104 13.7501 5.75979 13.5979C5.46789 13.4638 5.22097 13.2482 5.04874 12.977C4.85328 12.6693 4.79766 12.2605 4.68643 11.4429L3.80985 5.00008H17.528C17.8045 5.00008 17.9427 5.00008 18.0399 5.05676C18.1253 5.10649 18.1901 5.18489 18.223 5.278C18.2605 5.38414 18.2346 5.51992 18.1829 5.79149L17.0799 11.5824C16.9329 12.354 16.8594 12.7398 16.6606 13.0286C16.4852 13.2833 16.2424 13.4842 15.9595 13.6088C15.6385 13.7501 15.2458 13.7501 14.4603 13.7501Z" fill="white"/>
    <path d="M7.50033 18.3334C7.96056 18.3334 8.33366 17.9603 8.33366 17.5001C8.33366 17.0398 7.96056 16.6667 7.50033 16.6667C7.04009 16.6667 6.66699 17.0398 6.66699 17.5001C6.66699 17.9603 7.04009 18.3334 7.50033 18.3334Z" fill="white"/>
    <path d="M14.167 18.3334C14.6272 18.3334 15.0003 17.9603 15.0003 17.5001C15.0003 17.0398 14.6272 16.6667 14.167 16.6667C13.7068 16.6667 13.3337 17.0398 13.3337 17.5001C13.3337 17.9603 13.7068 18.3334 14.167 18.3334Z" fill="white"/>
    <path d="M1.66699 1.66675H2.75546C2.96048 1.66675 3.06299 1.66675 3.14548 1.70445C3.21817 1.73767 3.27978 1.7911 3.32295 1.85837C3.37194 1.9347 3.38644 2.03618 3.41543 2.23913L3.80985 5.00008M3.80985 5.00008L4.68643 11.4429C4.79766 12.2605 4.85328 12.6693 5.04874 12.977C5.22097 13.2482 5.46789 13.4638 5.75979 13.5979C6.09104 13.7501 6.50361 13.7501 7.32875 13.7501H14.4603C15.2458 13.7501 15.6385 13.7501 15.9595 13.6088C16.2424 13.4842 16.4852 13.2833 16.6606 13.0286C16.8594 12.7398 16.9329 12.354 17.0799 11.5824L18.1829 5.79149C18.2346 5.51992 18.2605 5.38414 18.223 5.278C18.1901 5.18489 18.1253 5.10649 18.0399 5.05676C17.9427 5.00008 17.8045 5.00008 17.528 5.00008H3.80985ZM8.33366 17.5001C8.33366 17.9603 7.96056 18.3334 7.50033 18.3334C7.04009 18.3334 6.66699 17.9603 6.66699 17.5001C6.66699 17.0398 7.04009 16.6667 7.50033 16.6667C7.96056 16.6667 8.33366 17.0398 8.33366 17.5001ZM15.0003 17.5001C15.0003 17.9603 14.6272 18.3334 14.167 18.3334C13.7068 18.3334 13.3337 17.9603 13.3337 17.5001C13.3337 17.0398 13.7068 16.6667 14.167 16.6667C14.6272 16.6667 15.0003 17.0398 15.0003 17.5001Z" stroke="white" stroke-width="2" stroke-linecap="round" stroke-linejoin="round"/>
    </g>
    <defs>
    <clipPath id="clip0_1_15724">
    <rect width="20" height="20" fill="white"/>
    </clipPath>
    </defs>
</svg>