<svg width="20" height="20" viewBox="0 0 20 20" fill="none" xmlns="http://www.w3.org/2000/svg">
<path d="M17.5 12.8333L7.5 12.8333M17.5 7.83333L7.5 7.83333M4.16667 12.8333C4.16667 13.2936 3.79357 13.6667 3.33333 13.6667C2.8731 13.6667 2.5 13.2936 2.5 12.8333C2.5 12.3731 2.8731 12 3.33333 12C3.79357 12 4.16667 12.3731 4.16667 12.8333ZM4.16667 7.83333C4.16667 8.29357 3.79357 8.66667 3.33333 8.66667C2.8731 8.66667 2.5 8.29357 2.5 7.83333C2.5 7.3731 2.8731 7 3.33333 7C3.79357 7 4.16667 7.3731 4.16667 7.83333Z" stroke="white" stroke-width="1.4" stroke-linecap="round" stroke-linejoin="round"/>
</svg>